# xmcd
#
# Track frame offsets:
#        150
#        6483
#        32776
#        55936
#        73460
#        102601
#        121849
#        150709
#        175919
#        204254
#        210899
#        238014
#        262210
#        287275
#        313930
#
# Disc length: 4379 seconds
#
# Revision: 3
# Processed by: cddbd v1.5PL3 Copyright (c) Steve Scherf et al.
# Submitted via: ExactAudioCopy v0.95a4
#
DISCID=dd11190f
DTITLE=Globe - CRUISE RECORD 1995-2000 Disc2
DYEAR=2000
DGENRE=J-pop
TTITLE0="2"
TTITLE1=Can't Stop Fallin' In Love
TTITLE2=RUN AWAY FROM THE NIGHT
TTITLE3=Piano solo
TTITLE4=FACES PLACES
TTITLE5=Joy to the love
TTITLE6=millenium waves
TTITLE7=wanna Be A Dreammaker
TTITLE8=FACE
TTITLE9=interlude
TTITLE10=SHOCK INSIDE MY BRAIN
TTITLE11=You are the one
TTITLE12=Is this love
TTITLE13=Feel Like dance
TTITLE14=to be continued 2000
EXTD=YEAR: 2000
EXTT0=
EXTT1=
EXTT2=
EXTT3=
EXTT4=
EXTT5=
EXTT6=
EXTT7=
EXTT8=
EXTT9=
EXTT10=
EXTT11=
EXTT12=
EXTT13=
EXTT14=
PLAYORDER=
